<?xml version="1.0" encoding="UTF-8"?>
<svg id="_图层_1" data-name="图层_1" xmlns="http://www.w3.org/2000/svg" xmlns:xlink="http://www.w3.org/1999/xlink" version="1.1" viewBox="0 0 1024 1024">
  <!-- Generator: Adobe Illustrator 29.1.0, SVG Export Plug-In . SVG Version: 2.1.0 Build 142)  -->
  <defs>
    <style>
      .st0 {
        fill: none;
      }

      .st1 {
        fill: #1d5db0;
      }

      .st2 {
        clip-path: url(#clippath);
      }

      .st3 {
        fill: #f7f8f9;
      }
    </style>
    <clipPath id="clippath">
      <rect class="st0" width="1024" height="1024" rx="192" ry="192"/>
    </clipPath>
  </defs>
  <g class="st2">
    <rect class="st3" width="1024" height="1024" rx="192" ry="192"/>
  </g>
  <g>
    <path class="st0" d="M277.4,267.4c-4.5-4.5-10.5-7.6-18-9.2-5.6-1.2-16.8-1.9-33.5-1.9h-18.4l-13.6,129.7h30.6c11.5,0,19.8-.6,25-1.9,6.8-1.6,12.6-4.3,17.4-8.1,4.8-3.8,9-10.1,12.7-18.9,3.7-8.8,6.3-20.7,7.9-35.9,1.6-15.1,1.4-26.8-.5-34.9-1.9-8.1-5.1-14.4-9.7-19Z"/>
    <path class="st0" d="M791,363.1c-5.4,3.5-8.4,7.9-9,13.2-.5,5.3,1,9.8,4.7,13.6,3.7,3.8,8.6,5.7,14.9,5.7s14-2.2,20.8-6.7c5.1-3.4,8.6-7.5,10.6-12.4,1.4-3.2,2.5-9.3,3.4-18.3l.8-7.5c-5.2,1.6-13.3,3.5-24.3,5.7-11,2.2-18.3,4.4-21.9,6.5Z"/>
    <g>
      <g>
        <path d="M241.6,699.4c10.6-10.5,23.5-15.8,38.7-15.8s20.1,3,27.1,8.9c7.1,5.9,11.3,14,12.6,24.3l42-9.4c-3-15.8-8.7-28-17.2-36.4-14.2-14.3-33.8-21.4-58.9-21.4s-52.9,9.1-72.4,27.3c-19.5,18.2-31,43.8-34.5,76.6-3.3,31.1,3,55.6,18.6,73.5,15.7,17.9,37.1,26.9,64.4,26.9s40.7-5.2,56.1-15.7c15.4-10.5,27.3-26.5,35.7-48.1l-38.9-12.3c-5,14.5-11.8,25.1-20.4,31.8-8.6,6.7-18.5,10.1-29.5,10.1s-26.5-5.3-34.7-15.9c-8.2-10.6-11-28.4-8.4-53.4,2.5-23.5,9-40.6,19.5-51.1Z"/>
        <polygon points="382.8 850.5 422.2 850.5 442.8 652.8 403.5 652.8 382.8 850.5"/>
        <path d="M574.4,710.1c-8.2-4-21-6-38.6-6s-34.2,3.3-44.7,10c-10.5,6.7-18.5,16.9-23.9,30.7l35,6.2c3.1-6.7,6.8-11.3,11-14,4.2-2.7,9.8-4,16.8-4,10.4,0,17.2,1.6,20.6,4.7,3.4,3.1,4.7,8.3,4,15.6l-.4,3.8c-7.4,2.9-20.5,6-39.2,9.3-13.9,2.5-24.6,5.5-32.2,8.8-7.6,3.4-13.7,8.2-18.4,14.6-4.7,6.3-7.4,13.6-8.3,21.6-1.3,12.2,2.1,22.3,10.1,30.3,8,8,19.6,12,34.9,12s17-1.6,25-4.7c8-3.1,15.7-7.9,23-14.2.2.7.5,2.2.9,4.4,1,4.9,1.8,8.7,2.6,11.2h38.9c-2.7-6.8-4.4-13.2-5.1-19.2-.6-6-.3-15.3,1-27.8l5-44.2c1.7-16.4,1.2-27.8-1.7-33.9-2.9-6.2-8.4-11.2-16.5-15.2ZM550.9,789.3c-.9,9.1-2.1,15.2-3.5,18.5-2,4.9-5.6,9.1-10.7,12.5-6.9,4.5-13.9,6.7-21,6.7s-11.4-1.9-15.1-5.8c-3.7-3.9-5.3-8.4-4.7-13.8.6-5.4,3.6-9.8,9.1-13.3,3.6-2.2,11-4.4,22.1-6.6,11.1-2.2,19.3-4.2,24.5-5.8l-.8,7.6Z"/>
        <polygon points="800.3 707.3 762.1 801.1 747.1 707.3 709.2 707.3 673.8 801.1 655.7 707.3 617.5 707.3 649.6 850.5 687.8 850.5 722.6 758.4 738.6 850.5 776.4 850.5 839.1 707.3 800.3 707.3"/>
      </g>
      <g>
        <path class="st1" d="M545,217.8c-16.6-18.9-37.6-32.1-63-39.5-18.9-5.5-46.8-8.2-83.8-8.2h-164.2l-5.2,49.7,55.8,41.4-64.5,42.2-30.9,295.5h169.1c33.2,0,60-3,80.5-9.1,27.4-8.2,49.6-19.6,66.7-34.2,22.7-19.3,41.2-44.5,55.6-75.7,11.8-25.5,19.5-56,23.2-91.2,4.2-40.2,2.9-73.9-4-101.3-6.9-27.4-18.6-50.5-35.2-69.5ZM491.8,384.8c-3.5,33.1-9.2,59.3-17.3,78.5-8.1,19.2-17.4,33-27.9,41.4-10.5,8.4-23.2,14.3-38.1,17.8-11.4,2.7-29.7,4.1-54.8,4.1h-67.1l29.7-284h40.4c36.6,0,61.1,1.4,73.3,4.1,16.4,3.5,29.6,10.2,39.5,20.2,9.9,9.9,16.9,23.8,21.2,41.5,4.2,17.7,4.6,43.2,1.1,76.3Z"/>
        <path class="st1" d="M753.4,291.2c-11.5,6.6-25.2,20.4-40.9,41.2l4.6-44.2h-79.2l-32.5,310.6h85.3l10-95.9c5.5-52.8,11.5-87.5,18-104.1,6.5-16.6,14.2-28,23.2-34.4,9-6.3,19.4-9.5,31.3-9.5s25.2,4.5,38.7,13.5l33.9-71.7c-16.9-10.3-35.1-15.5-54.5-15.5s-26.4,3.3-37.9,9.9Z"/>
        <circle class="st1" cx="813.6" cy="573.4" r="25.4"/>
      </g>
    </g>
  </g>
</svg>